#!OML:ASF F:\VICON\USERDATA\INSTALL\Justin_Nancy\Justin_Nancy.ASF
:FULLY-SPECIFIED
:DEGREES
17
root -11.135 16.8827 -26.8538 -8.33628 -1.82135 -0.91237
lowerback 16.2873 1.36717 -0.41984
upperback 3.5363 1.97808 3.93868
thorax -5.50907 0.996724 4.0168
lowerneck -12.8155 -3.35685 -8.55858
upperneck 18.9098 -3.29589 2.44312
head 8.17623 -1.93271 1.87116
rclavicle 1.45113e-014 1.98785e-014
rhumerus -48.9204 18.6483 -90.02
rradius 122.03
rwrist -11.1683
rhand -16.5052 30.3286
rfingers 7.12502
rthumb 9.71272 0.572542
lclavicle 1.45113e-014 1.98785e-014
lhumerus -69.5586 -11.6917 97.2638
lradius 91.8501
lwrist 16.2016
lhand -18.8674 2.82242
lfingers 7.12502
lthumb 7.43318 32.6718
rfemur -18.3542 -7.07091 15.7716
rtibia 79.8936
rfoot 3.11275 -6.17427
rtoes 2.44708
lfemur -26.1358 0.782643 -26.421
ltibia 23.1402
lfoot 16.6157 3.69058
ltoes -0.810539
18
root -11.1297 16.8058 -26.3204 -8.65671 -1.48303 -1.17652
lowerback 16.337 1.27769 -0.155662
upperback 3.78495 1.89493 3.91086
thorax -5.25543 0.947481 3.85297
lowerneck -13.6326 -3.29962 -8.21693
upperneck 19.2492 -3.20415 2.38356
head 8.42385 -1.87081 1.7972
rclavicle -1.68967e-015 7.95139e-016
rhumerus -48.841 17.4447 -90.0465
rradius 121.487
rwrist -11.5623
rhand -16.9598 30.3845
rfingers 7.12502
rthumb 9.27412 0.608461
lclavicle -1.68967e-015 7.95139e-016
lhumerus -68.6592 -12.1285 97.1212
lradius 91.6368
lwrist 16.0481
lhand -19.1788 2.73753
lfingers 7.12502
lthumb 7.13254 32.5973
rfemur -19.7893 -7.90139 15.548
rtibia 81.1796
rfoot 1.45359 -9.0282
rtoes 7.59821
lfemur -26.3106 0.709191 -26.6082
ltibia 25.468
lfoot 15.9949 2.63407
ltoes 7.54978
19
root -11.1279 16.7111 -25.7983 -9.0939 -1.28752 -1.39911
lowerback 16.4249 0.839879 -0.318555
upperback 3.63751 1.31627 4.22002
thorax -5.42959 0.670031 4.40075
lowerneck -12.1468 -2.77138 -8.76975
upperneck 18.7633 -2.48718 2.33658
head 7.96206 -1.57667 1.96573
rclavicle -1.56046e-014 -1.11319e-014
rhumerus -49.7585 17.757 -90.2164
rradius 120.637
rwrist -11.7879
rhand -17.7907 30.4431
rfingers 7.12502
rthumb 8.47229 0.633048
lclavicle -1.56046e-014 -1.11319e-014
lhumerus -68.403 -10.8803 97.1377
lradius 91.2471
lwrist 16.1491
lhand -19.3528 2.8641
lfingers 7.12502
lthumb 6.9646 32.7295
rfemur -21.285 -8.58245 15.3468
rtibia 82.2021
rfoot -0.306747 -11.2895
rtoes 11.1518
lfemur -26.6512 1.25116 -26.9418
ltibia 28.8893
lfoot 12.9563 0.241045
ltoes 7.75804
20
root -11.1313 16.5982 -25.2878 -9.50565 -1.14056 -1.6429
lowerback 16.8606 0.628593 -0.202042
upperback 3.54627 1.07209 4.25885
thorax -5.74155 0.552805 4.43091
lowerneck -11.7253 -2.50418 -8.89265
upperneck 18.8669 -2.18706 2.58427
head 7.90588 -1.42409 2.10462
rclavicle 7.55382e-015 -3.18055e-015
rhumerus -50.1769 17.1199 -90.4262
rradius 119.246
rwrist -11.811
rhand -18.3399 30.288
rfingers 7.12502
rthumb 7.94227 0.457234
lclavicle 7.55382e-015 -3.18055e-015
lhumerus -67.6711 -10.7537 96.9635
lradius 90.6842
lwrist 16.6158
lhand -19.7806 3.41087
lfingers 7.12502
lthumb 6.55167 33.2895
rfemur -23.0158 -9.19845 15.2452
rtibia 82.9784
rfoot -1.4555 -13.1439
rtoes 13.9053
lfemur -27.1242 1.94817 -27.1764
ltibia 33.06
lfoot 8.58989 -0.920356
ltoes 7.54407
21
root -11.1403 16.4681 -24.7813 -9.94427 -1.20741 -2.11023
lowerback 17.532 0.443876 0.175453
upperback 3.40985 0.916797 4.26391
thorax -6.23287 0.476268 4.26132
lowerneck -11.8684 -2.23604 -8.60942
upperneck 19.5181 -1.89016 2.71572
head 8.12585 -1.26294 2.13725
rclavicle -1.19271e-015 1.43125e-014
rhumerus -50.6753 16.3181 -90.8938
rradius 117.624
rwrist -11.5567
rhand -18.4175 29.4388
rfingers 7.12502
rthumb 7.86743 -0.394807
lclavicle -1.19271e-015 1.43125e-014
lhumerus -66.7524 -10.7211 96.6478
lradius 89.8711
lwrist 17.2168
lhand -20.2515 4.04356
lfingers 7.12502
lthumb 6.09704 33.9358
rfemur -24.9653 -9.57281 15.5583
rtibia 83.483
rfoot -2.1632 -14.6082
rtoes 14.7473
lfemur -27.4182 2.386 -26.9179
ltibia 37.5558
lfoot 4.0882 -0.708604
ltoes 9.37839
22
root -11.1511 16.346 -24.2831 -10.352 -1.34098 -2.17389
lowerback 18.0844 0.359923 -0.0151304
upperback 3.38192 0.787004 4.29517
thorax -6.55443 0.420033 4.44185
lowerneck -11.7657 -2.13488 -8.45953
upperneck 19.3032 -1.7199 2.3725
head 8.02205 -1.20122 2.01441
rclavicle -1.19271e-015 -1.90833e-014
rhumerus -50.9668 15.6223 -91.0299
rradius 115.809
rwrist -11.1412
rhand -18.5099 28.729
rfingers 7.12502
rthumb 7.77819 -1.10792
lclavicle -1.19271e-015 -1.90833e-014
lhumerus -65.5076 -10.5549 96.4654
lradius 88.8979
lwrist 17.8446
lhand -20.5487 4.801
lfingers 7.12502
lthumb 5.81008 34.7013
rfemur -27.0229 -9.69725 15.5184
rtibia 83.5909
rfoot -3.15198 -15.5687
rtoes 15.0056
lfemur -27.4825 2.42993 -26.8911
ltibia 41.9303
lfoot -0.0887741 -0.0641275
ltoes 9.04651
23
root -11.1541 16.2465 -23.7862 -10.613 -0.963698 -2.07706
lowerback 18.3061 0.130043 -0.183992
upperback 3.54784 0.443287 4.19445
thorax -6.46784 0.251776 4.51125
lowerneck -12.2584 -1.97333 -8.42792
upperneck 19.3102 -1.45125 2.34796
head 8.09697 -1.07184 2.02737
rclavicle 6.36111e-015 4.37326e-014
rhumerus -50.9743 14.6161 -91.0593
rradius 113.943
rwrist -10.8343
rhand -18.6035 28.3227
rfingers 7.12502
rthumb 7.6879 -1.51754
lclavicle 6.36111e-015 4.37326e-014
lhumerus -63.4148 -10.5644 96.1185
lradius 87.5383
lwrist 18.6792
lhand -20.8558 4.84508
lfingers 7.12502
lthumb 5.51353 34.7534
rfemur -28.957 -10.1551 15.219
rtibia 83.1577
rfoot -4.24658 -15.9909
rtoes 14.6147
lfemur -27.451 1.81648 -27.1221
ltibia 45.8564
lfoot -3.84276 0.782947
ltoes 7.51772
24
root -11.1587 16.1486 -23.2891 -10.6533 -0.439821 -1.69125
lowerback 18.1318 -0.0745631 -0.51233
upperback 3.73893 0.0825398 3.92404
thorax -6.13853 0.0728708 4.48374
lowerneck -12.977 -1.90323 -8.53692
upperneck 19.5476 -1.33365 2.68725
head 8.30099 -0.992074 2.17199
rclavicle 1.31198e-014 -2.38542e-015
rhumerus -51.0009 13.3725 -91.2084
rradius 112.004
rwrist -10.5004
rhand -18.9091 28.0561
rfingers 7.12502
rthumb 7.39285 -1.79474
lclavicle 1.31198e-014 -2.38542e-015
lhumerus -60.8572 -10.8393 95.6621
lradius 85.8256
lwrist 19.6043
lhand -21.1157 5.22743
lfingers 7.12502
lthumb 5.26268 35.1421
rfemur -31.0302 -10.558 14.6444
rtibia 82.3013
rfoot -5.26874 -15.935
rtoes 14.0053
lfemur -27.3279 1.00648 -27.6579
ltibia 49.1861
lfoot -7.03712 1.6583
ltoes 7.37978
25
root -11.165 16.0492 -22.8035 -10.3226 -0.229833 -0.73356
lowerback 17.8079 -0.136302 -1.50241
upperback 3.64173 -0.208749 3.57628
thorax -6.04092 -0.055792 4.7379
lowerneck -13.3546 -1.79226 -8.6898
upperneck 19.9084 -1.15799 2.90816
head 8.48217 -0.904067 2.29444
rclavicle -1.74931e-014 -1.59028e-014
rhumerus -51.1893 12.5273 -91.4521
rradius 109.918
rwrist -9.9842
rhand -19.4151 27.5696
rfingers 7.12502
rthumb 6.90448 -2.29779
lclavicle -1.74931e-014 -1.59028e-014
lhumerus -58.6383 -10.7458 95.1907
lradius 84.1535
lwrist 20.0347
lhand -21.3288 5.93809
lfingers 7.12502
lthumb 5.05684 35.8578
rfemur -33.7035 -10.5524 13.6269
rtibia 81.0479
rfoot -5.98036 -15.6457
rtoes 10.9824
lfemur -27.3849 0.772653 -28.8196
ltibia 52.0159
lfoot -9.42588 2.63278
ltoes 6.83764
